mtllib ./Map3.mtl
g Cube (1)
v -17.3213 0.963541 -28.73392
v -17.3213 0.963541 -25.73392
v -17.47709 1.169392 -28.73392
v -17.47709 1.169392 -25.73392
v -9.094803 7.513466 -28.73392
v -9.094803 7.513466 -25.73392
v -8.939007 7.307613 -28.73392
v -8.939007 7.307613 -25.73392
v -17.47709 1.169392 -28.73392
v -17.47709 1.169392 -25.73392
v -9.094803 7.513466 -28.73392
v -9.094803 7.513466 -25.73392
v -8.939007 7.307613 -28.73392
v -17.3213 0.963541 -28.73392
v -17.3213 0.963541 -25.73392
v -8.939007 7.307613 -25.73392
v -17.3213 0.963541 -25.73392
v -17.47709 1.169392 -25.73392
v -9.094803 7.513466 -25.73392
v -8.939007 7.307613 -25.73392
v -8.939007 7.307613 -28.73392
v -9.094803 7.513466 -28.73392
v -17.47709 1.169392 -28.73392
v -17.3213 0.963541 -28.73392

vn -0.7973735 -0.6034863 -1.192093E-07
vn -0.7973735 -0.6034863 -1.192093E-07
vn -0.7973735 -0.6034863 -1.192093E-07
vn -0.7973735 -0.6034863 -1.192093E-07
vn -0.6034863 0.7973734 0
vn -0.6034863 0.7973734 0
vn 0.7973735 0.6034863 1.192093E-07
vn 0.7973735 0.6034863 1.192093E-07
vn -0.6034863 0.7973734 0
vn -0.6034863 0.7973734 0
vn 0.7973735 0.6034863 1.192093E-07
vn 0.7973735 0.6034863 1.192093E-07
vn 0.6034863 -0.7973734 0
vn 0.6034863 -0.7973734 0
vn 0.6034863 -0.7973734 0
vn 0.6034863 -0.7973734 0
vn -1.192093E-07 0 1
vn -1.192093E-07 0 1
vn -1.192093E-07 0 1
vn -1.192093E-07 0 1
vn 1.192093E-07 0 -1
vn 1.192093E-07 0 -1
vn 1.192093E-07 0 -1
vn 1.192093E-07 0 -1

vt 0 0
vt 1 0
vt 0 1
vt 1 1
vt 0 1
vt 1 1
vt 0 1
vt 1 1
vt 0 0
vt 1 0
vt 0 0
vt 1 0
vt 0 0
vt 0 1
vt 1 1
vt 1 0
vt 0 0
vt 0 1
vt 1 1
vt 1 0
vt 0 0
vt 0 1
vt 1 1
vt 1 0

usemtl Urp
usemap Urp
f 3/3/3 1/1/1 4/4/4
f 4/4/4 1/1/1 2/2/2
f 5/5/5 9/9/9 6/6/6
f 6/6/6 9/9/9 10/10/10
f 7/7/7 11/11/11 8/8/8
f 8/8/8 11/11/11 12/12/12
f 14/14/14 13/13/13 15/15/15
f 15/15/15 13/13/13 16/16/16
f 18/18/18 17/17/17 19/19/19
f 19/19/19 17/17/17 20/20/20
f 22/22/22 21/21/21 23/23/23
f 23/23/23 21/21/21 24/24/24
mtllib ./Map3.mtl
g Cube
v -22.664 0 -26
v -14.336 0 -26
v -22.664 2 -26
v -14.336 2 -26
v -22.664 2 -29
v -14.336 2 -29
v -22.664 0 -29
v -14.336 0 -29
v -22.664 2 -26
v -14.336 2 -26
v -22.664 2 -29
v -14.336 2 -29
v -22.664 0 -29
v -22.664 0 -26
v -14.336 0 -26
v -14.336 0 -29
v -14.336 0 -26
v -14.336 2 -26
v -14.336 2 -29
v -14.336 0 -29
v -22.664 0 -29
v -22.664 2 -29
v -22.664 2 -26
v -22.664 0 -26

vn 0 0 1
vn 0 0 1
vn 0 0 1
vn 0 0 1
vn 0 1 0
vn 0 1 0
vn 0 0 -1
vn 0 0 -1
vn 0 1 0
vn 0 1 0
vn 0 0 -1
vn 0 0 -1
vn 0 -1 0
vn 0 -1 0
vn 0 -1 0
vn 0 -1 0
vn 1 0 0
vn 1 0 0
vn 1 0 0
vn 1 0 0
vn -1 0 0
vn -1 0 0
vn -1 0 0
vn -1 0 0

vt 0 0
vt 1 0
vt 0 1
vt 1 1
vt 0 1
vt 1 1
vt 0 1
vt 1 1
vt 0 0
vt 1 0
vt 0 0
vt 1 0
vt 0 0
vt 0 1
vt 1 1
vt 1 0
vt 0 0
vt 0 1
vt 1 1
vt 1 0
vt 0 0
vt 0 1
vt 1 1
vt 1 0

usemtl Urp
usemap Urp
f 27/27/27 25/25/25 28/28/28
f 28/28/28 25/25/25 26/26/26
f 29/29/29 33/33/33 30/30/30
f 30/30/30 33/33/33 34/34/34
f 31/31/31 35/35/35 32/32/32
f 32/32/32 35/35/35 36/36/36
f 38/38/38 37/37/37 39/39/39
f 39/39/39 37/37/37 40/40/40
f 42/42/42 41/41/41 43/43/43
f 43/43/43 41/41/41 44/44/44
f 46/46/46 45/45/45 47/47/47
f 47/47/47 45/45/45 48/48/48
mtllib ./Map3.mtl
g Cube
v -9.1106 -0.7409973 -19.78835
v 1.5145 -0.7409973 -19.78835
v -9.1106 7.538002 -19.78835
v 1.5145 7.538002 -19.78835
v -9.1106 7.538002 -29.21165
v 1.5145 7.538002 -29.21165
v -9.1106 -0.7409973 -29.21165
v 1.5145 -0.7409973 -29.21165
v -9.1106 7.538002 -19.78835
v 1.5145 7.538002 -19.78835
v -9.1106 7.538002 -29.21165
v 1.5145 7.538002 -29.21165
v -9.1106 -0.7409973 -29.21165
v -9.1106 -0.7409973 -19.78835
v 1.5145 -0.7409973 -19.78835
v 1.5145 -0.7409973 -29.21165
v 1.5145 -0.7409973 -19.78835
v 1.5145 7.538002 -19.78835
v 1.5145 7.538002 -29.21165
v 1.5145 -0.7409973 -29.21165
v -9.1106 -0.7409973 -29.21165
v -9.1106 7.538002 -29.21165
v -9.1106 7.538002 -19.78835
v -9.1106 -0.7409973 -19.78835

vn 0 0 1
vn 0 0 1
vn 0 0 1
vn 0 0 1
vn 0 1 0
vn 0 1 0
vn 0 0 -1
vn 0 0 -1
vn 0 1 0
vn 0 1 0
vn 0 0 -1
vn 0 0 -1
vn 0 -1 0
vn 0 -1 0
vn 0 -1 0
vn 0 -1 0
vn 1 0 0
vn 1 0 0
vn 1 0 0
vn 1 0 0
vn -1 0 0
vn -1 0 0
vn -1 0 0
vn -1 0 0

vt 0 0
vt 1 0
vt 0 1
vt 1 1
vt 0 1
vt 1 1
vt 0 1
vt 1 1
vt 0 0
vt 1 0
vt 0 0
vt 1 0
vt 0 0
vt 0 1
vt 1 1
vt 1 0
vt 0 0
vt 0 1
vt 1 1
vt 1 0
vt 0 0
vt 0 1
vt 1 1
vt 1 0

usemtl Urp
usemap Urp
f 51/51/51 49/49/49 52/52/52
f 52/52/52 49/49/49 50/50/50
f 53/53/53 57/57/57 54/54/54
f 54/54/54 57/57/57 58/58/58
f 55/55/55 59/59/59 56/56/56
f 56/56/56 59/59/59 60/60/60
f 62/62/62 61/61/61 63/63/63
f 63/63/63 61/61/61 64/64/64
f 66/66/66 65/65/65 67/67/67
f 67/67/67 65/65/65 68/68/68
f 70/70/70 69/69/69 71/71/71
f 71/71/71 69/69/69 72/72/72
mtllib ./Map3.mtl
g Cube
v -22.42805 -0.5543346 -11.40234
v -19.42805 -0.5543346 -11.40234
v -22.42805 -0.2990265 -11.36408
v -19.42805 -0.2990265 -11.36408
v -22.42805 1.991339 -26.64549
v -19.42805 1.991339 -26.64549
v -22.42805 1.736031 -26.68376
v -19.42805 1.736031 -26.68376
v -22.42805 -0.2990265 -11.36408
v -19.42805 -0.2990265 -11.36408
v -22.42805 1.991339 -26.64549
v -19.42805 1.991339 -26.64549
v -22.42805 1.736031 -26.68376
v -22.42805 -0.5543346 -11.40234
v -19.42805 -0.5543346 -11.40234
v -19.42805 1.736031 -26.68376
v -19.42805 -0.5543346 -11.40234
v -19.42805 -0.2990265 -11.36408
v -19.42805 1.991339 -26.64549
v -19.42805 1.736031 -26.68376
v -22.42805 1.736031 -26.68376
v -22.42805 1.991339 -26.64549
v -22.42805 -0.2990265 -11.36408
v -22.42805 -0.5543346 -11.40234

vn 0 -0.1482235 0.9889539
vn 0 -0.1482235 0.9889539
vn 0 -0.1482235 0.9889539
vn 0 -0.1482235 0.9889539
vn 0 0.9889539 0.1482235
vn 0 0.9889539 0.1482235
vn 0 0.1482235 -0.9889539
vn 0 0.1482235 -0.9889539
vn 0 0.9889539 0.1482235
vn 0 0.9889539 0.1482235
vn 0 0.1482235 -0.9889539
vn 0 0.1482235 -0.9889539
vn 0 -0.9889539 -0.1482235
vn 0 -0.9889539 -0.1482235
vn 0 -0.9889539 -0.1482235
vn 0 -0.9889539 -0.1482235
vn 1 0 0
vn 1 0 0
vn 1 0 0
vn 1 0 0
vn -1 0 0
vn -1 0 0
vn -1 0 0
vn -1 0 0

vt 0 0
vt 1 0
vt 0 1
vt 1 1
vt 0 1
vt 1 1
vt 0 1
vt 1 1
vt 0 0
vt 1 0
vt 0 0
vt 1 0
vt 0 0
vt 0 1
vt 1 1
vt 1 0
vt 0 0
vt 0 1
vt 1 1
vt 1 0
vt 0 0
vt 0 1
vt 1 1
vt 1 0

usemtl Urp
usemap Urp
f 75/75/75 73/73/73 76/76/76
f 76/76/76 73/73/73 74/74/74
f 77/77/77 81/81/81 78/78/78
f 78/78/78 81/81/81 82/82/82
f 79/79/79 83/83/83 80/80/80
f 80/80/80 83/83/83 84/84/84
f 86/86/86 85/85/85 87/87/87
f 87/87/87 85/85/85 88/88/88
f 90/90/90 89/89/89 91/91/91
f 91/91/91 89/89/89 92/92/92
f 94/94/94 93/93/93 95/95/95
f 95/95/95 93/93/93 96/96/96
mtllib ./Map3.mtl
g Ground
v -50 -1.110223E-15 50
v -40 -1.110223E-15 50
v -30 -1.110223E-15 50
v -20 -1.110223E-15 50
v -9.999999 -1.110223E-15 50
v 0 -1.110223E-15 50
v 10 -1.110223E-15 50
v 20 -1.110223E-15 50
v 30 -1.110223E-15 50
v 40 -1.110223E-15 50
v 50 -1.110223E-15 50
v -50 -8.881784E-16 40
v -40 -8.881784E-16 40
v -30 -8.881784E-16 40
v -20 -8.881784E-16 40
v -9.999999 -8.881784E-16 40
v 0 -8.881784E-16 40
v 10 -8.881784E-16 40
v 20 -8.881784E-16 40
v 30 -8.881784E-16 40
v 40 -8.881784E-16 40
v 50 -8.881784E-16 40
v -50 -6.661338E-16 30
v -40 -6.661338E-16 30
v -30 -6.661338E-16 30
v -20 -6.661338E-16 30
v -9.999999 -6.661338E-16 30
v 0 -6.661338E-16 30
v 10 -6.661338E-16 30
v 20 -6.661338E-16 30
v 30 -6.661338E-16 30
v 40 -6.661338E-16 30
v 50 -6.661338E-16 30
v -50 -4.440892E-16 20
v -40 -4.440892E-16 20
v -30 -4.440892E-16 20
v -20 -4.440892E-16 20
v -9.999999 -4.440892E-16 20
v 0 -4.440892E-16 20
v 10 -4.440892E-16 20
v 20 -4.440892E-16 20
v 30 -4.440892E-16 20
v 40 -4.440892E-16 20
v 50 -4.440892E-16 20
v -50 -2.220446E-16 9.999999
v -40 -2.220446E-16 9.999999
v -30 -2.220446E-16 9.999999
v -20 -2.220446E-16 9.999999
v -9.999999 -2.220446E-16 9.999999
v 0 -2.220446E-16 9.999999
v 10 -2.220446E-16 9.999999
v 20 -2.220446E-16 9.999999
v 30 -2.220446E-16 9.999999
v 40 -2.220446E-16 9.999999
v 50 -2.220446E-16 9.999999
v -50 0 0
v -40 0 0
v -30 0 0
v -20 0 0
v -9.999999 0 0
v 0 0 0
v 10 0 0
v 20 0 0
v 30 0 0
v 40 0 0
v 50 0 0
v -50 2.220447E-16 -10
v -40 2.220447E-16 -10
v -30 2.220447E-16 -10
v -20 2.220447E-16 -10
v -9.999999 2.220447E-16 -10
v 0 2.220447E-16 -10
v 10 2.220447E-16 -10
v 20 2.220447E-16 -10
v 30 2.220447E-16 -10
v 40 2.220447E-16 -10
v 50 2.220447E-16 -10
v -50 4.440892E-16 -20
v -40 4.440892E-16 -20
v -30 4.440892E-16 -20
v -20 4.440892E-16 -20
v -9.999999 4.440892E-16 -20
v 0 4.440892E-16 -20
v 10 4.440892E-16 -20
v 20 4.440892E-16 -20
v 30 4.440892E-16 -20
v 40 4.440892E-16 -20
v 50 4.440892E-16 -20
v -50 6.661338E-16 -30
v -40 6.661338E-16 -30
v -30 6.661338E-16 -30
v -20 6.661338E-16 -30
v -9.999999 6.661338E-16 -30
v 0 6.661338E-16 -30
v 10 6.661338E-16 -30
v 20 6.661338E-16 -30
v 30 6.661338E-16 -30
v 40 6.661338E-16 -30
v 50 6.661338E-16 -30
v -50 8.881785E-16 -40
v -40 8.881785E-16 -40
v -30 8.881785E-16 -40
v -20 8.881785E-16 -40
v -9.999999 8.881785E-16 -40
v 0 8.881785E-16 -40
v 10 8.881785E-16 -40
v 20 8.881785E-16 -40
v 30 8.881785E-16 -40
v 40 8.881785E-16 -40
v 50 8.881785E-16 -40
v -50 1.110223E-15 -50
v -40 1.110223E-15 -50
v -30 1.110223E-15 -50
v -20 1.110223E-15 -50
v -9.999999 1.110223E-15 -50
v 0 1.110223E-15 -50
v 10 1.110223E-15 -50
v 20 1.110223E-15 -50
v 30 1.110223E-15 -50
v 40 1.110223E-15 -50
v 50 1.110223E-15 -50

vn 0 1 0
vn 0 1 0
vn 0 1 0
vn 0 1 0
vn 0 1 0
vn 0 1 0
vn 0 1 0
vn 0 1 0
vn 0 1 0
vn 0 1 0
vn 0 1 0
vn 0 1 0
vn 0 1 0
vn 0 1 0
vn 0 1 0
vn 0 1 0
vn 0 1 0
vn 0 1 0
vn 0 1 0
vn 0 1 0
vn 0 1 0
vn 0 1 0
vn 0 1 0
vn 0 1 0
vn 0 1 0
vn 0 1 0
vn 0 1 0
vn 0 1 0
vn 0 1 0
vn 0 1 0
vn 0 1 0
vn 0 1 0
vn 0 1 0
vn 0 1 0
vn 0 1 0
vn 0 1 0
vn 0 1 0
vn 0 1 0
vn 0 1 0
vn 0 1 0
vn 0 1 0
vn 0 1 0
vn 0 1 0
vn 0 1 0
vn 0 1 0
vn 0 1 0
vn 0 1 0
vn 0 1 0
vn 0 1 0
vn 0 1 0
vn 0 1 0
vn 0 1 0
vn 0 1 0
vn 0 1 0
vn 0 1 0
vn 0 1 0
vn 0 1 0
vn 0 1 0
vn 0 1 0
vn 0 1 0
vn 0 1 0
vn 0 1 0
vn 0 1 0
vn 0 1 0
vn 0 1 0
vn 0 1 0
vn 0 1 0
vn 0 1 0
vn 0 1 0
vn 0 1 0
vn 0 1 0
vn 0 1 0
vn 0 1 0
vn 0 1 0
vn 0 1 0
vn 0 1 0
vn 0 1 0
vn 0 1 0
vn 0 1 0
vn 0 1 0
vn 0 1 0
vn 0 1 0
vn 0 1 0
vn 0 1 0
vn 0 1 0
vn 0 1 0
vn 0 1 0
vn 0 1 0
vn 0 1 0
vn 0 1 0
vn 0 1 0
vn 0 1 0
vn 0 1 0
vn 0 1 0
vn 0 1 0
vn 0 1 0
vn 0 1 0
vn 0 1 0
vn 0 1 0
vn 0 1 0
vn 0 1 0
vn 0 1 0
vn 0 1 0
vn 0 1 0
vn 0 1 0
vn 0 1 0
vn 0 1 0
vn 0 1 0
vn 0 1 0
vn 0 1 0
vn 0 1 0
vn 0 1 0
vn 0 1 0
vn 0 1 0
vn 0 1 0
vn 0 1 0
vn 0 1 0
vn 0 1 0
vn 0 1 0
vn 0 1 0
vn 0 1 0

vt 0 0
vt 0.1 0
vt 0.2 0
vt 0.3 0
vt 0.4 0
vt 0.5 0
vt 0.6 0
vt 0.7 0
vt 0.8 0
vt 0.9 0
vt 1 0
vt 0 0.1
vt 0.1 0.1
vt 0.2 0.1
vt 0.3 0.1
vt 0.4 0.1
vt 0.5 0.1
vt 0.6 0.1
vt 0.7 0.1
vt 0.8 0.1
vt 0.9 0.1
vt 1 0.1
vt 0 0.2
vt 0.1 0.2
vt 0.2 0.2
vt 0.3 0.2
vt 0.4 0.2
vt 0.5 0.2
vt 0.6 0.2
vt 0.7 0.2
vt 0.8 0.2
vt 0.9 0.2
vt 1 0.2
vt 0 0.3
vt 0.1 0.3
vt 0.2 0.3
vt 0.3 0.3
vt 0.4 0.3
vt 0.5 0.3
vt 0.6 0.3
vt 0.7 0.3
vt 0.8 0.3
vt 0.9 0.3
vt 1 0.3
vt 0 0.4
vt 0.1 0.4
vt 0.2 0.4
vt 0.3 0.4
vt 0.4 0.4
vt 0.5 0.4
vt 0.6 0.4
vt 0.7 0.4
vt 0.8 0.4
vt 0.9 0.4
vt 1 0.4
vt 0 0.5
vt 0.1 0.5
vt 0.2 0.5
vt 0.3 0.5
vt 0.4 0.5
vt 0.5 0.5
vt 0.6 0.5
vt 0.7 0.5
vt 0.8 0.5
vt 0.9 0.5
vt 1 0.5
vt 0 0.6
vt 0.1 0.6
vt 0.2 0.6
vt 0.3 0.6
vt 0.4 0.6
vt 0.5 0.6
vt 0.6 0.6
vt 0.7 0.6
vt 0.8 0.6
vt 0.9 0.6
vt 1 0.6
vt 0 0.7
vt 0.1 0.7
vt 0.2 0.7
vt 0.3 0.7
vt 0.4 0.7
vt 0.5 0.7
vt 0.6 0.7
vt 0.7 0.7
vt 0.8 0.7
vt 0.9 0.7
vt 1 0.7
vt 0 0.8
vt 0.1 0.8
vt 0.2 0.8
vt 0.3 0.8
vt 0.4 0.8
vt 0.5 0.8
vt 0.6 0.8
vt 0.7 0.8
vt 0.8 0.8
vt 0.9 0.8
vt 1 0.8
vt 0 0.9
vt 0.1 0.9
vt 0.2 0.9
vt 0.3 0.9
vt 0.4 0.9
vt 0.5 0.9
vt 0.6 0.9
vt 0.7 0.9
vt 0.8 0.9
vt 0.9 0.9
vt 1 0.9
vt 0 1
vt 0.1 1
vt 0.2 1
vt 0.3 1
vt 0.4 1
vt 0.5 1
vt 0.6 1
vt 0.7 1
vt 0.8 1
vt 0.9 1
vt 1 1

usemtl Urp
usemap Urp
f 118/118/118 106/106/106 107/107/107
f 117/117/117 106/106/106 118/118/118
f 117/117/117 105/105/105 106/106/106
f 129/129/129 117/117/117 118/118/118
f 116/116/116 105/105/105 117/117/117
f 116/116/116 104/104/104 105/105/105
f 128/128/128 117/117/117 129/129/129
f 128/128/128 116/116/116 117/117/117
f 140/140/140 128/128/128 129/129/129
f 115/115/115 104/104/104 116/116/116
f 115/115/115 103/103/103 104/104/104
f 127/127/127 116/116/116 128/128/128
f 127/127/127 115/115/115 116/116/116
f 139/139/139 128/128/128 140/140/140
f 139/139/139 127/127/127 128/128/128
f 151/151/151 139/139/139 140/140/140
f 114/114/114 103/103/103 115/115/115
f 114/114/114 102/102/102 103/103/103
f 126/126/126 115/115/115 127/127/127
f 126/126/126 114/114/114 115/115/115
f 138/138/138 127/127/127 139/139/139
f 138/138/138 126/126/126 127/127/127
f 150/150/150 139/139/139 151/151/151
f 150/150/150 138/138/138 139/139/139
f 162/162/162 150/150/150 151/151/151
f 113/113/113 102/102/102 114/114/114
f 113/113/113 101/101/101 102/102/102
f 125/125/125 114/114/114 126/126/126
f 125/125/125 113/113/113 114/114/114
f 137/137/137 126/126/126 138/138/138
f 137/137/137 125/125/125 126/126/126
f 149/149/149 138/138/138 150/150/150
f 149/149/149 137/137/137 138/138/138
f 161/161/161 150/150/150 162/162/162
f 161/161/161 149/149/149 150/150/150
f 173/173/173 161/161/161 162/162/162
f 112/112/112 101/101/101 113/113/113
f 112/112/112 100/100/100 101/101/101
f 124/124/124 113/113/113 125/125/125
f 124/124/124 112/112/112 113/113/113
f 136/136/136 125/125/125 137/137/137
f 136/136/136 124/124/124 125/125/125
f 148/148/148 137/137/137 149/149/149
f 148/148/148 136/136/136 137/137/137
f 160/160/160 149/149/149 161/161/161
f 160/160/160 148/148/148 149/149/149
f 172/172/172 161/161/161 173/173/173
f 172/172/172 160/160/160 161/161/161
f 184/184/184 172/172/172 173/173/173
f 111/111/111 100/100/100 112/112/112
f 111/111/111 99/99/99 100/100/100
f 123/123/123 112/112/112 124/124/124
f 123/123/123 111/111/111 112/112/112
f 135/135/135 124/124/124 136/136/136
f 135/135/135 123/123/123 124/124/124
f 147/147/147 136/136/136 148/148/148
f 147/147/147 135/135/135 136/136/136
f 159/159/159 148/148/148 160/160/160
f 159/159/159 147/147/147 148/148/148
f 171/171/171 160/160/160 172/172/172
f 171/171/171 159/159/159 160/160/160
f 183/183/183 172/172/172 184/184/184
f 183/183/183 171/171/171 172/172/172
f 195/195/195 183/183/183 184/184/184
f 194/194/194 183/183/183 195/195/195
f 206/206/206 194/194/194 195/195/195
f 182/182/182 171/171/171 183/183/183
f 194/194/194 182/182/182 183/183/183
f 170/170/170 159/159/159 171/171/171
f 182/182/182 170/170/170 171/171/171
f 158/158/158 147/147/147 159/159/159
f 170/170/170 158/158/158 159/159/159
f 146/146/146 135/135/135 147/147/147
f 158/158/158 146/146/146 147/147/147
f 205/205/205 194/194/194 206/206/206
f 217/217/217 205/205/205 206/206/206
f 216/216/216 205/205/205 217/217/217
f 193/193/193 182/182/182 194/194/194
f 205/205/205 193/193/193 194/194/194
f 216/216/216 204/204/204 205/205/205
f 204/204/204 193/193/193 205/205/205
f 215/215/215 204/204/204 216/216/216
f 181/181/181 170/170/170 182/182/182
f 193/193/193 181/181/181 182/182/182
f 169/169/169 158/158/158 170/170/170
f 181/181/181 169/169/169 170/170/170
f 204/204/204 192/192/192 193/193/193
f 192/192/192 181/181/181 193/193/193
f 215/215/215 203/203/203 204/204/204
f 203/203/203 192/192/192 204/204/204
f 214/214/214 203/203/203 215/215/215
f 192/192/192 180/180/180 181/181/181
f 180/180/180 169/169/169 181/181/181
f 169/169/169 157/157/157 158/158/158
f 157/157/157 146/146/146 158/158/158
f 203/203/203 191/191/191 192/192/192
f 191/191/191 180/180/180 192/192/192
f 214/214/214 202/202/202 203/203/203
f 202/202/202 191/191/191 203/203/203
f 213/213/213 202/202/202 214/214/214
f 180/180/180 168/168/168 169/169/169
f 168/168/168 157/157/157 169/169/169
f 191/191/191 179/179/179 180/180/180
f 179/179/179 168/168/168 180/180/180
f 202/202/202 190/190/190 191/191/191
f 190/190/190 179/179/179 191/191/191
f 213/213/213 201/201/201 202/202/202
f 201/201/201 190/190/190 202/202/202
f 212/212/212 201/201/201 213/213/213
f 212/212/212 200/200/200 201/201/201
f 211/211/211 200/200/200 212/212/212
f 201/201/201 189/189/189 190/190/190
f 200/200/200 189/189/189 201/201/201
f 190/190/190 178/178/178 179/179/179
f 189/189/189 178/178/178 190/190/190
f 179/179/179 167/167/167 168/168/168
f 178/178/178 167/167/167 179/179/179
f 168/168/168 156/156/156 157/157/157
f 167/167/167 156/156/156 168/168/168
f 211/211/211 199/199/199 200/200/200
f 210/210/210 199/199/199 211/211/211
f 200/200/200 188/188/188 189/189/189
f 199/199/199 188/188/188 200/200/200
f 189/189/189 177/177/177 178/178/178
f 188/188/188 177/177/177 189/189/189
f 178/178/178 166/166/166 167/167/167
f 177/177/177 166/166/166 178/178/178
f 210/210/210 198/198/198 199/199/199
f 209/209/209 198/198/198 210/210/210
f 199/199/199 187/187/187 188/188/188
f 198/198/198 187/187/187 199/199/199
f 188/188/188 176/176/176 177/177/177
f 187/187/187 176/176/176 188/188/188
f 209/209/209 197/197/197 198/198/198
f 208/208/208 197/197/197 209/209/209
f 198/198/198 186/186/186 187/187/187
f 197/197/197 186/186/186 198/198/198
f 208/208/208 196/196/196 197/197/197
f 207/207/207 196/196/196 208/208/208
f 196/196/196 185/185/185 197/197/197
f 197/197/197 185/185/185 186/186/186
f 185/185/185 174/174/174 186/186/186
f 186/186/186 175/175/175 187/187/187
f 186/186/186 174/174/174 175/175/175
f 187/187/187 175/175/175 176/176/176
f 174/174/174 163/163/163 175/175/175
f 175/175/175 163/163/163 164/164/164
f 175/175/175 164/164/164 176/176/176
f 163/163/163 152/152/152 164/164/164
f 176/176/176 164/164/164 165/165/165
f 176/176/176 165/165/165 177/177/177
f 177/177/177 165/165/165 166/166/166
f 164/164/164 152/152/152 153/153/153
f 164/164/164 153/153/153 165/165/165
f 152/152/152 141/141/141 153/153/153
f 165/165/165 154/154/154 166/166/166
f 165/165/165 153/153/153 154/154/154
f 153/153/153 141/141/141 142/142/142
f 153/153/153 142/142/142 154/154/154
f 141/141/141 130/130/130 142/142/142
f 166/166/166 154/154/154 155/155/155
f 166/166/166 155/155/155 167/167/167
f 167/167/167 155/155/155 156/156/156
f 142/142/142 130/130/130 131/131/131
f 130/130/130 119/119/119 131/131/131
f 154/154/154 142/142/142 143/143/143
f 154/154/154 143/143/143 155/155/155
f 142/142/142 131/131/131 143/143/143
f 155/155/155 144/144/144 156/156/156
f 155/155/155 143/143/143 144/144/144
f 131/131/131 119/119/119 120/120/120
f 119/119/119 108/108/108 120/120/120
f 143/143/143 131/131/131 132/132/132
f 143/143/143 132/132/132 144/144/144
f 131/131/131 120/120/120 132/132/132
f 156/156/156 144/144/144 145/145/145
f 156/156/156 145/145/145 157/157/157
f 157/157/157 145/145/145 146/146/146
f 120/120/120 108/108/108 109/109/109
f 108/108/108 97/97/97 109/109/109
f 109/109/109 97/97/97 98/98/98
f 132/132/132 120/120/120 121/121/121
f 120/120/120 109/109/109 121/121/121
f 144/144/144 132/132/132 133/133/133
f 144/144/144 133/133/133 145/145/145
f 132/132/132 121/121/121 133/133/133
f 145/145/145 134/134/134 146/146/146
f 145/145/145 133/133/133 134/134/134
f 146/146/146 134/134/134 135/135/135
f 134/134/134 123/123/123 135/135/135
f 109/109/109 98/98/98 110/110/110
f 121/121/121 109/109/109 110/110/110
f 110/110/110 98/98/98 99/99/99
f 110/110/110 99/99/99 111/111/111
f 133/133/133 121/121/121 122/122/122
f 133/133/133 122/122/122 134/134/134
f 134/134/134 122/122/122 123/123/123
f 121/121/121 110/110/110 122/122/122
f 122/122/122 110/110/110 111/111/111
f 122/122/122 111/111/111 123/123/123
